HIERARCHY
ROOT Hips
{
	OFFSET 0.00000 0.00000 0.00000
	CHANNELS 6 Xposition Yposition Zposition Yrotation Zrotation Xrotation 
	JOINT Lumbar
	{
		OFFSET 0 0 0
		CHANNELS 3 Zrotation Xrotation Yrotation
		JOINT Neck
		{
			OFFSET 0.00 0.2701 0.00
			CHANNELS 3 Zrotation Xrotation Yrotation
			End Site
			{
				OFFSET 0.00 0.1379 0.00
			}
		}
		JOINT RightShoulder
		{
			OFFSET 0.0119 0.2289 0.1181
			CHANNELS 3 Zrotation Xrotation Yrotation
			JOINT RightElbow
			{
				OFFSET 0.00 -0.1475 0.00
				CHANNELS 2 Zrotation Yrotation
				JOINT RightWrist
				{
					OFFSET 0.00 -0.1605 0.00
					CHANNELS 2 Zrotation Xrotation
					End Site
					{
						OFFSET 0.0040 -0.1068 0.0006
					}
				}
			}
		}
		JOINT LeftShoulder
		{
			OFFSET 0.0119 0.2289 -0.1181
			CHANNELS 3 Zrotation Xrotation Yrotation
			JOINT LeftElbow
			{
				OFFSET 0.00 -0.1475 0.00
				CHANNELS 2 Zrotation Yrotation
				JOINT LeftWrist
				{
					OFFSET 0.00 -0.1605 0.00
					CHANNELS 2 Zrotation Xrotation
					End Site
					{
						OFFSET 0.0040 -0.1068 -0.0006
					}
				}
			}
		}
	}
	JOINT RightHip
	{
		OFFSET 0.0316 -0.0424 0.0458
		CHANNELS 3 Zrotation Xrotation Yrotation
		JOINT RightKnee
		{
			OFFSET 0.00 -0.2438 0.00
			CHANNELS 1 Zrotation
			JOINT RightAnkle
			{
				OFFSET 0.00 -0.2449 0.00
				CHANNELS 3 Zrotation Xrotation Yrotation
				End Site
				{
					OFFSET 0.1237 -0.0542 0.0051
				}
			}
		}
	}
	JOINT LeftHip
	{
		OFFSET 0.0316 -0.0424 -0.0458
		CHANNELS 3 Zrotation Xrotation Yrotation
		JOINT LeftKnee
		{
			OFFSET 0.00 -0.2438 0.00
			CHANNELS 1 Zrotation
			JOINT LeftAnkle
			{
				OFFSET 0.00 -0.2449 0.00
				CHANNELS 3 Zrotation Xrotation Yrotation
				End Site
				{
					OFFSET 0.1237 -0.0542 -0.0051
				}
			}
		}
	}
}
MOTION
Frames: 11
Frame Time: 0.02
0.38388 -0.04381 -0.00027 179.96907 0 0.76373 66.72093 6.75856 34.87968 50.5514 -29.07158 -18.60381 25.93848 -127.53647 -78.78785 120.43859 47.0941 -62.04013 0.16597 163.33332 44.28387 -46.44083 122.8566 -36.96657 -32.31754 -4.29609 105.35878 13.28317 -39.92155 -35.70703 -33.05694 -3.5209 10.39924 90.19261 -2.93785 -0.40607 -5.88538 -14.69754 1.4833 3.79375
0.38416 -0.04392 0.00033 179.7552 0 0.66607 66.72093 7.19075 35.04685 49.92651 -29.40357 -17.65811 28.19805 -127.24908 -77.46405 120.85714 45.38289 -60.16491 0.51962 163.08434 44.96951 -46.63836 123.20601 -37.79642 -32.80394 -4.0177 106.10944 13.32393 -39.8415 -35.23528 -32.99454 -3.38983 10.70696 90.25509 -2.77628 -0.61971 -5.96429 -14.82179 1.54668 3.7406
0.38452 -0.04413 0.00096 179.49299 0 0.55865 66.72093 7.70404 35.25625 49.16119 -29.82373 -16.45393 31.02641 -126.89555 -75.76209 121.41589 43.31014 -57.9162 0.95997 162.89715 45.91397 -47.10509 123.66397 -39.07722 -33.59189 -3.60587 106.92632 13.3868 -39.86424 -34.5199 -32.97484 -3.23881 10.83061 90.36917 -2.54919 -0.68235 -6.12 -14.91355 1.63799 3.61979
0.38486 -0.0443 0.00157 179.25015 0 0.4617 66.72093 8.17969 35.42785 48.45242 -30.16957 -15.40806 33.54286 -126.5662 -74.27614 121.93213 41.37584 -55.91713 1.37007 162.68216 46.74583 -47.42478 124.08107 -40.12184 -34.16497 -3.27332 107.71346 13.43473 -39.80598 -33.91085 -32.9139 -3.10161 11.00983 90.46202 -2.34837 -0.80514 -6.245 -15.02834 1.71112 3.5391
0.38516 -0.04444 0.00221 179.01882 0 0.337 66.72093 8.65888 35.67404 47.77576 -30.65724 -14.19067 36.27591 -126.25734 -72.61705 122.36077 39.53075 -53.58719 1.74549 162.46652 47.54865 -47.84289 124.46393 -41.2708 -35.06231 -2.86738 108.50373 13.5027 -39.8924 -33.31677 -32.94183 -2.9427 11.30948 90.54447 -2.16354 -0.97038 -6.35002 -15.11328 1.80628 3.42593
0.38554 -0.04466 0.00278 178.75249 0 0.26921 66.72093 9.14905 35.77808 46.99633 -30.87261 -13.26613 38.70885 -125.89495 -71.20993 123.00257 37.43407 -51.84388 2.2096 162.25859 48.47928 -48.11705 124.94233 -42.3391 -35.35829 -2.57656 109.30192 13.53401 -39.69458 -32.63908 -32.79899 -2.82269 11.30987 90.66055 -1.9301 -1.00852 -6.51437 -15.24962 1.86291 3.36131
0.38616 -0.04504 0.00315 178.39324 0 0.35437 66.72093 9.65961 35.45905 45.99169 -30.29947 -13.24745 40.01875 -125.36371 -70.75895 124.22068 34.57403 -51.9589 2.9303 162.14603 49.66295 -47.98255 125.67009 -42.84209 -33.91809 -2.68598 110.09852 13.46349 -38.77994 -31.73977 -32.1377 -2.84294 10.57944 90.86495 -1.56945 -0.73579 -6.8405 -15.54963 1.80288 3.45122
0.38686 -0.04549 0.00344 178.00175 0 0.49878 66.72093 10.17648 34.99981 44.88407 -29.4515 -13.5269 41.03489 -124.78954 -70.54236 125.64363 31.50106 -52.6554 3.73148 162.01628 50.97256 -47.6795 126.48796 -43.29378 -31.86865 -2.90657 110.90054 13.35437 -37.56163 -30.77385 -31.30975 -2.89878 9.54633 91.09987 -1.1635 -0.33909 -7.22083 -15.89937 1.70389 3.59071
0.38751 -0.04593 0.00375 177.63017 0 0.62038 66.72093 10.68435 34.61799 43.80783 -28.74038 -13.64725 42.28687 -124.25748 -70.11034 126.95937 28.63232 -52.98412 4.47346 161.84657 52.25072 -47.42684 127.25656 -43.92042 -30.09283 -3.04341 111.70522 13.26024 -36.41976 -29.8715 -30.58218 -2.92008 8.61755 91.31617 -0.78397 0.00411 -7.56626 -16.21673 1.62508 3.70388
0.38823 -0.04628 0.0041 177.23478 0 0.72351 66.72093 11.22179 34.17877 42.79176 -27.98496 -13.85611 43.12797 -123.62109 -70.13 128.34275 25.3067 -53.71723 5.31196 161.91097 53.43407 -47.318 128.064 -43.91725 -28.31853 -3.31543 112.49429 13.17853 -35.53256 -28.82066 -29.75262 -3.01654 7.81771 91.55553 -0.37771 0.34138 -7.95879 -16.57428 1.53669 3.8305
0.38881 -0.04682 0.00435 176.88191 0 0.88025 66.72093 11.69698 33.82654 41.62774 -27.25151 -13.95747 44.74611 -123.20093 -69.26306 129.62814 22.87488 -53.77548 5.96996 161.44471 54.83506 -46.836 128.81063 -45.21443 -26.42092 -3.33459 113.31175 13.06037 -34.05238 -28.06574 -29.09465 -2.9672 6.68592 91.75192 -0.01702 0.71738 -8.26367 -16.86039 1.45873 3.94212
